<svg id="Layer_1" data-name="Layer 1" xmlns="http://www.w3.org/2000/svg" viewBox="0 0 206.62 206.61"><path d="M13.41,108.56H0V98.44c2.92,0,5.85-.18,8.75,0,3.3.26,4.63-.75,5-4.3,3.8-39.33,33.44-71.87,72-79.24,3.74-.71,7.55-1.07,12-1.69V0h10.43V12.72c49.68,7.19,77.94,35.25,85.62,85.09,1.66.07,3.91.22,6.16.27s4.26,0,6.67,0v9.83a18.84,18.84,0,0,1-2.09.38c-3.46.18-8-.92-10.11.85s-1.67,6.36-2.3,9.73C184.37,160,152.05,189.34,110.46,193a13.27,13.27,0,0,0-1.59.46v13.2H98.42V193.43c-23-1.8-42.62-10.29-58.63-26.33S15.3,131.79,13.41,108.56Zm89.91,38.06c23.52,0,43.42-19.93,43.31-43.36C146.52,79.6,126.84,60,103.27,60S60,79.74,60,103.31,79.71,146.62,103.32,146.62Zm76.23-48.54c-1.67-38.71-36.09-70.6-71.05-70.65,0,6.62-.16,13.25.14,19.87.06,1.17,1.85,3,3.1,3.26,24,4.79,39.41,20.15,44.32,44.16.27,1.29,2.05,3.16,3.19,3.21C165.87,98.24,172.51,98.08,179.55,98.08ZM49.63,97.85a8.82,8.82,0,0,0,.7-1.57c4.76-25.3,19.53-40.72,45-45.78,1.08-.22,2.7-1.7,2.73-2.64.24-6.92.13-13.85.13-20.79-41,1.94-71,38.7-70.73,70.78ZM27,108.72c2.48,42.79,40.68,71,71.16,70.39,0-6-.18-11.93.07-17.89.15-3.45-.77-4.86-4.47-5.48C81,153.61,70.5,147.25,62.17,137.3c-6.9-8.25-10.68-17.86-12.13-28.58Zm81.5,70.9c42.69-2.48,71.25-40.45,70.64-71.12-6.62,0-13.26-.15-19.88.15-1.14.06-2.91,1.92-3.18,3.21-5.18,24.4-19.84,39.11-44.29,44.2-1.27.27-3.09,2.1-3.15,3.28C108.34,166,108.5,172.58,108.5,179.62Z"/><path d="M85.89,103.08c.17-9.36,8.54-17.46,17.77-17.19s17.1,8.29,17.11,17.41c0,9.29-8.25,17.5-17.56,17.46S85.72,112.35,85.89,103.08Z"/></svg>