<svg id="Layer_1" data-name="Layer 1" xmlns="http://www.w3.org/2000/svg" viewBox="0 0 167.77 225"><path d="M81.36,225a289.94,289.94,0,0,1-59.69-71.68C11.1,135.44,3.33,116.49.72,95.68-5.68,44.52,31.46,5.76,73.05.85A24.37,24.37,0,0,0,76.36,0h15c6.9,1.66,14,2.76,20.67,5.08,37.62,13.12,60.73,52.49,54.83,91.62-4.45,29.46-17.48,55-35.17,78.2-12.07,15.8-26.16,30.06-39.42,44.94A60.82,60.82,0,0,1,86.36,225Zm1.81-17.8c2-1.95,3.36-3,4.42-4.22C98.8,189.82,110.72,177.17,121,163.3c15.33-20.72,27-43.3,30.72-69.44C158.8,44,111,3.34,63,18.77,27.36,30.24,8.54,66.15,17.91,104.61c6.11,25.1,19,46.7,34.66,66.73C62.16,183.63,72.79,195.1,83.17,207.2Z"/><path d="M45.22,83.8A38.52,38.52,0,0,1,83.73,45c21.68,0,38.77,17.29,38.75,39.15A38.78,38.78,0,0,1,83.93,123C62.31,123,45.24,105.75,45.22,83.8Zm15.21,0a23.84,23.84,0,0,0,23.28,23.85c12.62.11,23.55-10.82,23.57-23.59S96.67,60.32,84,60.23,60.49,71,60.43,83.83Z"/></svg>