<svg width="24" height="23" viewBox="0 0 24 23" fill="none" xmlns="http://www.w3.org/2000/svg">
<path fill-rule="evenodd" clip-rule="evenodd" d="M19.7679 5.69921L20.5241 3.71728H23.8752V0.12915H0.958496V22.8388H23.8752V19.2497H20.6866L19.497 17.9098L18.3075 19.2497H9.33558V12.0724H6.36371L10.0929 3.77096H13.7137L14.5783 5.64554V3.77096H19.0637L19.7679 5.69921ZM17.2814 7.03805V6.23496L17.6054 7.03805L19.1179 11.0009H20.5241L22.0377 7.03805L22.3075 6.23496V10.9472H23.8752V4.89509H21.2814L20.0929 7.9485L19.7679 8.80528L19.4429 7.9485L18.2543 4.89509H15.6595V10.9472H17.2814V7.03805ZM13.9304 10.9472H15.7137L13.0127 4.89509H10.9033L8.20121 10.9472H9.98454L10.47 9.76838H13.4439L13.9304 10.9472ZM11.6606 6.98438L11.9835 6.23496L12.3085 6.98438L12.9575 8.53792H11.0658L11.6606 6.98438ZM10.5793 12.0724V18.1255H15.6595V16.8393H12.0929V15.7679H15.5522V14.4837H12.0929V13.4112H15.6595V12.1261H10.5793V12.0724ZM21.3887 18.0708H23.3887L20.5241 15.0711L23.3887 12.0724H21.3887L19.5512 14.0543L17.7127 12.0724H15.6595L18.5241 15.1258L15.6595 18.1255H17.6054L19.4429 16.1436L21.3887 18.0708ZM22.145 15.0711L23.8752 16.8393V13.3575L22.145 15.0711Z" fill="#006FCF"/>
</svg>
