<svg width="32" height="19" viewBox="0 0 32 19" fill="none" xmlns="http://www.w3.org/2000/svg">
<path fill-rule="evenodd" clip-rule="evenodd" d="M11.853 16.7879H20.0209V2.18042H11.853V16.7879Z" fill="#7673C0"/>
<path fill-rule="evenodd" clip-rule="evenodd" d="M12.3721 9.48567C12.369 6.63457 13.6843 3.94038 15.9384 2.18038C11.8835 -0.989686 6.01539 -0.289815 2.82979 3.74425C-0.356849 7.77832 0.347489 13.6178 4.40029 16.7879C7.78609 19.4366 12.5526 19.4366 15.9384 16.7879C13.6843 15.0289 12.37 12.3357 12.3721 9.48567Z" fill="#EB001B"/>
<path fill-rule="evenodd" clip-rule="evenodd" d="M31.0398 9.48573C31.0388 14.6161 26.8584 18.774 21.7019 18.773C19.6106 18.773 17.5806 18.0731 15.9375 16.7879C19.9913 13.6179 20.6946 7.77837 17.509 3.74431C17.0495 3.16212 16.5225 2.63773 15.9375 2.18044C19.9913 -0.989626 25.8595 -0.291819 29.0461 3.74225C30.3386 5.37837 31.0419 7.40057 31.0419 9.48263L31.0398 9.48573Z" fill="#00A1DF"/>
</svg>
