<svg width="31" height="19" viewBox="0 0 31 19" fill="none" xmlns="http://www.w3.org/2000/svg">
<path fill-rule="evenodd" clip-rule="evenodd" d="M11.144 16.7869H19.3124V2.18042H11.144V16.7869Z" fill="#FF5F00"/>
<path fill-rule="evenodd" clip-rule="evenodd" d="M11.6635 9.48471C11.6604 6.63362 12.9758 3.94046 15.23 2.18046C11.1749 -0.989608 5.30648 -0.289737 2.12173 3.74329C-1.06509 7.77839 -0.361753 13.6179 3.69232 16.7869C7.07729 19.4347 11.844 19.4347 15.23 16.7869C12.9769 15.0279 11.6615 12.3358 11.6635 9.48471Z" fill="#EB001B"/>
<path fill-rule="evenodd" clip-rule="evenodd" d="M30.3332 9.4847C30.3332 14.6161 26.1547 18.774 20.9989 18.774C18.9055 18.774 16.8732 18.0741 15.229 16.7869C19.2831 13.6179 19.9854 7.77837 16.8006 3.74328C16.3411 3.16212 15.8141 2.63773 15.229 2.18044C19.282 -0.989626 25.1505 -0.291819 28.3373 3.74225C29.6299 5.37837 30.3332 7.39954 30.3332 9.48263V9.4847Z" fill="#F79E1B"/>
</svg>
