<svg width="40" height="13" viewBox="0 0 40 13" fill="none" xmlns="http://www.w3.org/2000/svg">
<path fill-rule="evenodd" clip-rule="evenodd" d="M15.1045 0.438928L9.86974 12.3256H6.47176L3.89842 2.83806C3.89842 2.39906 3.53168 1.95907 3.16495 1.78367C2.15488 1.34566 1.05157 0.99387 0.0415039 0.817478L0.133705 0.438928H5.55286C6.28632 0.438928 6.92966 0.99387 7.02186 1.69548L8.3997 8.54901L11.7065 0.438928H15.1045ZM28.3297 8.46081C28.3297 5.29764 23.8294 5.12224 23.8294 3.80426C23.8294 3.36526 24.2873 2.92527 25.2062 2.83806C26.3075 2.75086 27.4108 2.92527 28.3297 3.36526L28.8798 0.817478C27.9619 0.465684 26.8596 0.290283 25.8496 0.290283C22.7261 0.290283 20.4304 1.87187 20.4304 4.24325C20.4304 5.91303 21.9916 6.87923 23.2783 7.49462C24.5629 8.10803 24.9307 8.46081 24.9307 8.98801C24.9307 9.77781 23.9206 10.1296 23.0027 10.1296C21.8994 10.1296 20.706 9.866 19.6959 9.42601L19.1448 12.062C20.246 12.502 21.5327 12.6774 22.7261 12.6774C26.1251 12.502 28.3297 10.9204 28.3297 8.46081ZM36.6868 12.3256H39.6248L37.0536 0.438928H34.2989C33.6556 0.438928 33.1956 0.817478 32.9211 1.34566L28.1453 12.3256H31.5432L32.1866 10.5686H36.3191L36.6868 12.3256ZM33.1045 8.10803L34.7589 3.62885L35.7679 8.10803H33.1045ZM19.6959 0.438928L17.0324 12.3256H13.8178L16.4813 0.438928H19.6959Z" fill="#1A2070"/>
</svg>
