<?xml version="1.0" encoding="utf-8"?>
<!-- Generator: Adobe Illustrator 25.0.0, SVG Export Plug-In . SVG Version: 6.00 Build 0)  -->
<svg version="1.1" id="Layer_1" xmlns="http://www.w3.org/2000/svg" xmlns:xlink="http://www.w3.org/1999/xlink" x="0px" y="0px"
	 viewBox="0 0 58 77.23" style="enable-background:new 0 0 58 77.23;" xml:space="preserve">
<style type="text/css">
	.st0{fill:none;stroke:#1E272E;stroke-width:8;stroke-linecap:round;stroke-linejoin:round;stroke-miterlimit:133.3333;}
</style>
<g>
	<path class="st0" d="M11.21,11.15C16.14,6.38,22.07,4,29,4s12.84,2.36,17.7,7.07C51.57,15.78,54,21.5,54,28.21
		c0,3.36-0.87,7.2-2.6,11.54c-1.73,4.33-3.83,8.4-6.29,12.19c-2.46,3.79-4.89,7.34-7.3,10.64c-2.41,3.3-4.45,5.93-6.12,7.88
		L29,73.23c-0.67-0.76-1.57-1.76-2.68-3.01c-1.12-1.25-3.13-3.74-6.04-7.48c-2.91-3.74-5.45-7.37-7.63-10.89
		c-2.18-3.52-4.17-7.5-5.96-11.94C4.89,35.47,4,31.57,4,28.21C4,21.5,6.4,15.81,11.21,11.15z"/>
	<path class="st0" d="M32.85,29c0,2.12-1.72,3.85-3.85,3.85s-3.85-1.72-3.85-3.85c0-2.12,1.72-3.85,3.85-3.85S32.85,26.88,32.85,29z
		"/>
</g>
</svg>
